<svg width="128" height="128" xmlns="http://www.w3.org/2000/svg">

 <g>
  <title>Layer 1</title>
  <rect id="svg_1" stroke-width="4" stroke="#212532" fill="#363d52" rx="14" height="124" width="124" y="2" x="2"/>
  <g id="svg_2" transform="scale(.101) translate(122 122)">
   <g id="svg_3" fill="#fff">
    <path id="svg_4" d="m105,673l0,33q407,354 814,0l0,-33l-814,0z"/>
    <path id="svg_5" d="m105,673l152,14q12,1 15,14l4,67l132,10l8,-61q2,-11 15,-15l162,0q13,4 15,15l8,61l132,-10l4,-67q3,-13 15,-14l152,-14l0,-246q30,-39 56,-81q-35,-59 -83,-108q-43,20 -82,47q-40,-37 -88,-64q7,-51 8,-102q-59,-28 -123,-42q-26,43 -46,89q-49,-7 -98,0q-20,-46 -46,-89q-64,14 -123,42q1,51 8,102q-48,27 -88,64q-39,-27 -82,-47q-48,49 -83,108q26,42 56,81l0,246zm0,33l0,39c0,276 813,276 813,0l0,-39l-134,12l-5,69q-2,10 -14,13l-162,11q-12,0 -16,-11l-10,-65l-130,0l-10,65q-4,11 -16,11l-162,-11q-12,-3 -14,-13l-5,-69l-135,-12z" fill="#478cbf"/>
    <path id="svg_6" d="m483,600c3,34 55,34 58,0l0,-86c-3,-34 -55,-34 -58,0l0,86z"/>
    <circle id="svg_7" r="90" cy="526" cx="725"/>
    <circle id="svg_8" r="90" cy="526" cx="299"/>
   </g>
   <g id="svg_9" fill="#414042">
    <circle id="svg_10" r="60" cy="532" cx="307"/>
    <circle id="svg_11" r="60" cy="532" cx="717"/>
   </g>
  </g>
  <ellipse ry="36.5" rx="38.5" id="svg_12" cy="70" cx="64.5" stroke="#000" fill="#fff"/>
 </g>
</svg>